<svg width="16" height="16" viewBox="0 0 16 16" fill="none" xmlns="http://www.w3.org/2000/svg">
<path d="M1.47917 15.5C1.1875 15.5694 0.934028 15.4965 0.718751 15.2812C0.503473 15.066 0.430556 14.8125 0.500001 14.5208L1.33333 10.5417L5.45833 14.6667L1.47917 15.5ZM5.45833 14.6667L1.33333 10.5417L11.1875 0.687495C11.4236 0.451384 11.7153 0.333328 12.0625 0.333328C12.4097 0.333328 12.7014 0.451384 12.9375 0.687495L15.3125 3.0625C15.5486 3.29861 15.6667 3.59027 15.6667 3.9375C15.6667 4.28472 15.5486 4.57638 15.3125 4.8125L5.45833 14.6667ZM12.0625 1.58333L2.85417 10.7917L5.20833 13.1458L14.4167 3.9375L12.0625 1.58333Z" fill="white"/>
</svg>
